<?xml version="1.0" standalone="no"?>
<!DOCTYPE svg PUBLIC "-//W3C//DTD SVG 20010904//EN"
 "http://www.w3.org/TR/2001/REC-SVG-20010904/DTD/svg10.dtd">
<svg version="1.0" xmlns="http://www.w3.org/2000/svg"
 width="695.000000pt" height="695.000000pt" viewBox="0 0 695.000000 695.000000"
 preserveAspectRatio="xMidYMid meet">

<g transform="translate(0.000000,695.000000) scale(0.100000,-0.100000)"
fill="#000000" stroke="none">
<path d="M280 3480 l0 -3200 3200 0 3200 0 0 3200 0 3200 -3200 0 -3200 0 0
-3200z m2310 1820 l0 -180 -125 0 -125 0 0 -705 0 -705 -180 0 -180 0 0 705 0
705 -125 0 -125 0 0 180 0 180 430 0 430 0 0 -180z m562 -167 l3 -348 98 -3
97 -3 0 351 0 350 180 0 180 0 0 -885 0 -885 -180 0 -180 0 0 355 0 355 -100
0 -100 0 0 -355 0 -355 -180 0 -180 0 0 885 0 885 180 0 180 0 2 -347z m1608
167 l0 -180 -200 0 -200 0 0 -170 0 -170 160 0 160 0 -2 -177 -3 -178 -157 -3
-158 -3 0 -174 0 -175 200 0 200 0 0 -180 0 -180 -380 0 -380 0 0 885 0 885
380 0 380 0 0 -180z m-2218 -2177 l128 -128 0 -630 0 -630 -127 -127 -128
-128 -342 0 -343 0 0 885 0 885 342 0 343 0 127 -127z m1148 -53 l0 -180 -205
0 -205 0 0 -170 0 -170 160 0 160 0 0 -180 0 -180 -160 0 -160 0 0 -175 0
-175 205 0 205 0 0 -180 0 -180 -385 0 -385 0 0 885 0 885 385 0 385 0 0 -180z
m630 -432 l0 -612 57 -58 57 -58 63 62 63 62 0 608 0 608 180 0 180 0 0 -697
0 -698 -187 -187 -188 -188 -110 0 -110 0 -182 182 -183 183 0 702 0 703 180
0 180 0 0 -612z m1727 480 l133 -133 0 -157 0 -158 -180 0 -180 0 0 74 0 75
-44 35 c-60 50 -106 50 -158 -1 l-38 -37 0 -95 0 -95 42 -43 42 -43 140 0 141
0 127 -127 128 -128 0 -275 0 -275 -127 -127 -128 -128 -235 0 -235 0 -133
133 -132 132 0 158 0 157 180 0 c164 0 180 -2 181 -17 0 -10 0 -42 -1 -72 -1
-49 1 -56 36 -92 36 -37 42 -39 98 -39 56 0 63 3 98 37 l38 37 0 95 0 95 -37
38 -37 38 -140 0 -141 0 -132 132 -133 133 0 270 0 270 132 132 133 133 215 0
215 0 132 -132z m-4759 -933 c71 -32 146 -106 182 -179 43 -90 44 -214 1 -311
-28 -63 -113 -150 -180 -182 -50 -25 -67 -28 -156 -28 -87 0 -107 3 -157 27
-79 37 -142 98 -181 177 -29 60 -32 74 -32 161 0 83 3 102 27 150 51 103 116
162 219 200 79 30 192 23 277 -15z"/>
<path d="M1790 5305 l0 -125 125 0 125 0 0 -705 0 -705 120 0 120 0 0 705 0
705 130 0 131 0 -3 123 -3 122 -372 3 -373 2 0 -125z"/>
<path d="M2850 4600 l0 -830 125 0 125 0 0 355 0 355 155 0 155 0 0 -355 0
-355 125 0 125 0 -2 828 -3 827 -120 0 -120 0 -3 -347 -2 -348 -155 0 -155 0
-2 348 -3 347 -122 3 -123 3 0 -831z"/>
<path d="M4060 4600 l0 -830 325 0 325 0 0 120 0 120 -205 0 -205 0 0 235 0
235 160 0 160 0 0 125 0 125 -160 0 -160 0 0 225 0 225 205 0 205 0 0 125 0
125 -325 0 -325 0 0 -830z"/>
<path d="M1790 2360 l0 -830 294 0 294 0 121 118 121 117 0 595 0 595 -118
118 -117 117 -298 0 -297 0 0 -830z m527 538 l53 -52 0 -480 0 -480 -52 -53
-52 -53 -118 0 -118 0 0 585 0 585 117 0 117 0 53 -52z"/>
<path d="M2090 2365 l0 -525 78 0 c75 0 79 1 110 33 l32 33 0 455 0 455 -38
37 c-37 36 -40 37 -110 37 l-72 0 0 -525z"/>
<path d="M2980 2365 l0 -825 330 0 330 0 0 120 0 120 -205 0 -205 0 0 235 0
235 160 0 160 0 0 120 0 120 -160 0 -160 0 0 230 0 230 205 0 205 0 0 120 0
120 -330 0 -330 0 0 -825z"/>
<path d="M4010 2538 l0 -653 177 -177 178 -178 75 0 75 0 173 173 172 172 0
658 0 657 -120 0 -120 0 0 -593 0 -592 -90 -90 -89 -89 -28 24 c-15 14 -56 51
-90 84 l-63 60 0 598 0 598 -125 0 -125 0 0 -652z"/>
<path d="M5392 3077 l-112 -112 0 -245 0 -245 117 -117 118 -118 140 0 141 0
52 -53 52 -53 0 -121 0 -121 -57 -56 -57 -56 -81 0 -81 0 -52 53 c-50 51 -52
54 -52 110 l0 57 -125 0 -125 0 0 -117 0 -118 117 -117 118 -118 200 0 200 0
118 118 117 117 0 250 0 250 -113 113 -112 112 -140 0 -140 0 -57 53 -58 53 0
120 0 120 58 57 58 57 65 0 65 0 51 -52 c50 -51 52 -56 55 -113 l3 -60 123 -3
122 -3 0 123 0 123 -113 113 -112 112 -195 0 -195 0 -113 -113z"/>
<path d="M0 10 c0 -5 5 -10 11 -10 5 0 7 5 4 10 -3 6 -8 10 -11 10 -2 0 -4 -4
-4 -10z"/>
</g>
</svg>
