<?xml version="1.0" standalone="no"?>
<!DOCTYPE svg PUBLIC "-//W3C//DTD SVG 20010904//EN"
 "http://www.w3.org/TR/2001/REC-SVG-20010904/DTD/svg10.dtd">
<svg version="1.0" xmlns="http://www.w3.org/2000/svg"
 width="1200.000000pt" height="1200.000000pt" viewBox="0 0 1200.000000 1200.000000"
 preserveAspectRatio="xMidYMid meet">

<g transform="translate(0.000000,1200.000000) scale(0.100000,-0.100000)"
fill="#000000" stroke="none">
<path d="M8940 9679 c-554 -63 -1025 -391 -1275 -889 l-45 -90 -2228 -2
c-3989 -3 -3590 0 -3642 -24 -65 -30 -107 -69 -138 -128 l-27 -51 -3 -2382 -2
-2383 -93 0 c-123 -1 -169 -20 -198 -86 -20 -44 -21 -60 -16 -403 5 -393 7
-413 73 -546 84 -173 242 -303 440 -362 56 -17 241 -18 3734 -21 2689 -2 3696
0 3755 8 260 37 476 219 563 475 l27 80 0 387 0 386 -25 27 c-40 44 -79 55
-190 55 l-100 0 0 1393 0 1394 83 28 c463 156 840 530 1000 992 142 407 118
851 -67 1237 -152 315 -447 610 -757 755 -275 129 -584 182 -869 150z m419
-284 c128 -25 235 -61 356 -121 373 -184 646 -548 722 -964 25 -138 22 -364
-6 -497 -54 -256 -168 -474 -350 -666 -193 -202 -399 -317 -706 -392 -107 -27
-348 -32 -477 -10 -287 47 -547 183 -751 394 -190 196 -317 442 -361 700 -21
122 -21 350 -1 467 101 577 569 1024 1157 1103 98 13 314 6 417 -14z m-1832
-1003 c-38 -190 -35 -481 7 -667 126 -554 519 -994 1054 -1179 171 -59 273
-77 490 -83 l192 -6 0 -1363 0 -1364 -915 0 -915 0 0 228 c0 255 -13 363 -60
504 -106 315 -343 590 -635 736 -83 41 -215 86 -309 106 -44 9 -82 18 -84 21
-3 2 -19 57 -37 121 l-32 117 49 81 c65 109 114 235 152 389 l32 128 49 37
c88 67 149 198 182 390 34 196 14 757 -33 912 -69 232 -277 415 -589 519 -191
64 -461 99 -665 86 -206 -12 -254 -28 -377 -129 -41 -34 -86 -69 -100 -80 -13
-10 -76 -38 -140 -62 -157 -60 -246 -108 -314 -172 -66 -61 -100 -114 -123
-192 -23 -81 -46 -349 -46 -544 0 -396 64 -613 214 -726 50 -38 53 -42 65
-107 29 -158 115 -372 207 -516 l44 -67 -26 -93 -27 -93 -85 -13 c-450 -65
-857 -414 -995 -852 -46 -146 -57 -240 -57 -495 l0 -234 -920 0 -920 0 0 2345
0 2345 2836 0 2837 0 -6 -28z m-1762 -563 c332 -40 601 -179 684 -353 36 -74
48 -179 57 -491 7 -221 1 -244 -30 -124 -48 185 -153 302 -317 354 -136 43
-533 74 -720 56 -397 -38 -654 -219 -754 -531 -10 -30 -21 -59 -25 -64 -15
-15 -23 167 -17 354 8 230 22 355 45 395 30 50 94 90 261 160 133 57 176 81
258 143 144 109 151 112 323 112 80 0 186 -5 235 -11z m145 -853 c145 -18 184
-29 223 -65 77 -70 117 -252 120 -543 1 -113 -3 -149 -26 -240 -78 -313 -224
-530 -427 -632 -84 -43 -146 -57 -239 -57 -319 1 -588 310 -666 766 -21 125
-20 213 5 334 56 275 213 414 510 451 95 11 339 5 500 -14z m167 -1692 l11
-46 -250 -264 c-138 -145 -251 -264 -253 -264 -13 0 -485 513 -485 527 0 10 3
28 6 39 5 21 9 20 100 -27 133 -67 250 -93 392 -86 59 3 134 12 167 21 69 19
203 82 255 120 19 14 38 25 41 26 3 0 10 -21 16 -46z m-1267 -429 c0 -137 4
-195 14 -219 13 -30 209 -229 597 -604 111 -107 119 -112 159 -112 23 0 56 7
74 15 42 20 682 662 695 698 7 17 11 108 11 218 0 215 -8 199 94 173 76 -19
206 -80 283 -131 183 -121 331 -325 399 -549 26 -85 28 -101 32 -351 l4 -263
-1600 0 -1599 0 -5 38 c-3 20 -2 138 3 262 8 252 19 307 89 458 123 261 360
458 643 532 118 31 107 47 107 -165z m619 -377 c25 -29 32 -45 29 -70 -3 -33
-4 -32 -190 151 l-188 184 0 50 0 51 158 -165 c87 -90 173 -181 191 -201z
m489 88 l-183 -180 -3 38 c-3 35 3 43 180 228 l183 190 3 -48 4 -49 -184 -179z
m3670 -1383 c-4 -259 -5 -282 -26 -333 -45 -112 -129 -196 -242 -242 l-55 -23
-3670 -3 c-2342 -1 -3689 1 -3722 8 -125 23 -237 109 -295 227 l-33 67 -3 288
-3 288 4026 0 4027 0 -4 -277z"/>
<path d="M9043 9360 c-56 -34 -67 -62 -73 -183 l-5 -108 -53 -18 c-112 -38
-239 -148 -307 -265 -43 -75 -67 -173 -68 -276 0 -160 36 -268 124 -364 91
-100 190 -146 454 -212 179 -45 238 -77 275 -149 21 -42 25 -62 25 -140 -1
-103 -19 -157 -78 -222 -59 -65 -117 -88 -222 -88 -74 0 -98 4 -133 23 -97 52
-153 137 -171 261 -11 82 -28 114 -73 137 -74 39 -176 -5 -198 -84 -12 -45 3
-162 30 -234 59 -157 211 -305 358 -349 l42 -12 0 -93 c0 -113 17 -165 65
-194 42 -26 110 -26 153 0 48 29 62 72 62 190 0 91 2 100 19 100 10 0 55 18
100 41 193 96 311 290 311 509 0 235 -99 399 -294 491 -51 24 -150 56 -248 80
-90 23 -187 52 -216 66 -89 42 -122 105 -122 238 0 72 4 90 31 144 92 185 334
226 478 82 54 -54 80 -108 90 -189 14 -111 48 -155 128 -167 82 -12 153 57
153 150 0 61 -30 187 -58 242 -64 124 -187 236 -312 283 l-60 22 0 102 c0 83
-4 107 -20 134 -41 67 -124 91 -187 52z"/>
<path d="M4556 3160 c-83 -26 -122 -130 -76 -205 42 -69 -20 -65 1092 -65 983
0 1004 0 1036 20 91 56 94 179 5 237 -26 17 -82 18 -1028 20 -550 1 -1013 -2
-1029 -7z"/>
</g>
</svg>
